# xmcd
#
# Track frame offsets:
#	150
#	15047
#	52880
#	96701
#	125941
#	165058
#	205060
#	234857
#
# Disc length: 3449 seconds
#
# Revision: 0
# Processed by: cddbd v1.5.2PL0 Copyright (c) Steve Scherf et al.
# Submitted via: audiograbber 1.83.01
#
DISCID=570d7708
DTITLE=Grateful Dead - 93-06-25 Robert F Kennedy Stadium, Washington DC
DYEAR=1900
DGENRE=
TTITLE0=Tuning
TTITLE1=Mississippi Half-Step Uptown Toodeloo
TTITLE2=Little Red Rooster
TTITLE3=Just Like Tom Thumb's Blues
TTITLE4=Althea
TTITLE5=Cassidy
TTITLE6=Cumberland Blues
TTITLE7=Promised Land
EXTD=
EXTT0=
EXTT1=
EXTT2=
EXTT3=
EXTT4=
EXTT5=
EXTT6=
EXTT7=
PLAYORDER=
